<mxfile host="Electron" agent="Mozilla/5.0 (X11; Linux x86_64) AppleWebKit/537.36 (KHTML, like Gecko) draw.io/26.0.4 Chrome/128.0.6613.186 Electron/32.2.5 Safari/537.36" version="26.0.4">
  <diagram name="Page-1" id="uXTg2ChlSyyvy5gXRrzg">
    <mxGraphModel dx="1393" dy="1498" grid="1" gridSize="10" guides="1" tooltips="1" connect="1" arrows="1" fold="1" page="1" pageScale="1" pageWidth="850" pageHeight="1100" math="0" shadow="0">
      <root>
        <mxCell id="0" />
        <mxCell id="1" parent="0" />
        <mxCell id="kIfJIDEljbvmFQx4l9QN-5" style="edgeStyle=orthogonalEdgeStyle;rounded=0;orthogonalLoop=1;jettySize=auto;html=1;" edge="1" parent="1" source="kIfJIDEljbvmFQx4l9QN-1" target="kIfJIDEljbvmFQx4l9QN-2">
          <mxGeometry relative="1" as="geometry" />
        </mxCell>
        <mxCell id="kIfJIDEljbvmFQx4l9QN-1" value="Users" style="sketch=0;outlineConnect=0;fontColor=#232F3E;gradientColor=none;fillColor=#232F3D;strokeColor=none;dashed=0;verticalLabelPosition=bottom;verticalAlign=top;align=center;html=1;fontSize=12;fontStyle=0;aspect=fixed;pointerEvents=1;shape=mxgraph.aws4.users;" vertex="1" parent="1">
          <mxGeometry x="20" y="501" width="78" height="78" as="geometry" />
        </mxCell>
        <mxCell id="kIfJIDEljbvmFQx4l9QN-6" value="&amp;nbsp;Allow Public IP of Edge Locations&amp;nbsp;" style="edgeStyle=orthogonalEdgeStyle;rounded=0;orthogonalLoop=1;jettySize=auto;html=1;fontSize=15;fontStyle=1" edge="1" parent="1" source="kIfJIDEljbvmFQx4l9QN-2" target="kIfJIDEljbvmFQx4l9QN-4">
          <mxGeometry relative="1" as="geometry" />
        </mxCell>
        <mxCell id="kIfJIDEljbvmFQx4l9QN-2" value="Edge Location" style="sketch=0;outlineConnect=0;fontColor=#232F3E;gradientColor=none;fillColor=#8C4FFF;strokeColor=none;dashed=0;verticalLabelPosition=bottom;verticalAlign=top;align=center;html=1;fontSize=12;fontStyle=0;aspect=fixed;pointerEvents=1;shape=mxgraph.aws4.edge_location;" vertex="1" parent="1">
          <mxGeometry x="240" y="501" width="78" height="78" as="geometry" />
        </mxCell>
        <mxCell id="kIfJIDEljbvmFQx4l9QN-3" value="EC2 Instances&lt;div&gt;&lt;b&gt;&lt;u&gt;Must be Public&lt;/u&gt;&lt;/b&gt;&lt;/div&gt;" style="sketch=0;points=[[0,0,0],[0.25,0,0],[0.5,0,0],[0.75,0,0],[1,0,0],[0,1,0],[0.25,1,0],[0.5,1,0],[0.75,1,0],[1,1,0],[0,0.25,0],[0,0.5,0],[0,0.75,0],[1,0.25,0],[1,0.5,0],[1,0.75,0]];outlineConnect=0;fontColor=#232F3E;fillColor=#ED7100;strokeColor=#ffffff;dashed=0;verticalLabelPosition=bottom;verticalAlign=top;align=center;html=1;fontSize=12;fontStyle=0;aspect=fixed;shape=mxgraph.aws4.resourceIcon;resIcon=mxgraph.aws4.ec2;" vertex="1" parent="1">
          <mxGeometry x="726" y="490" width="78" height="78" as="geometry" />
        </mxCell>
        <mxCell id="kIfJIDEljbvmFQx4l9QN-4" value="Security group" style="fillColor=none;strokeColor=#DD3522;verticalAlign=top;fontStyle=0;fontColor=#DD3522;whiteSpace=wrap;html=1;" vertex="1" parent="1">
          <mxGeometry x="700" y="460" width="130" height="160" as="geometry" />
        </mxCell>
        <mxCell id="kIfJIDEljbvmFQx4l9QN-7" value="http://d7uri8nf7uskq.cloudfront.net/tools/list-cloudfront-ips" style="text;html=1;align=center;verticalAlign=middle;resizable=0;points=[];autosize=1;strokeColor=none;fillColor=none;" vertex="1" parent="1">
          <mxGeometry x="340" y="560" width="330" height="30" as="geometry" />
        </mxCell>
      </root>
    </mxGraphModel>
  </diagram>
</mxfile>
